<mxfile host="app.diagrams.net" modified="2020-12-10T16:40:25.583Z" agent="5.0 (Windows NT 10.0; WOW64) AppleWebKit/537.36 (KHTML, like Gecko) Chrome/69.0.3497.100 Safari/537.36" etag="Up_5_uKez9a9FFp0y9m6" version="14.0.0" type="github">
  <diagram id="6fZNtSQUAMukB5zPzrCy" name="第 1 页">
    <mxGraphModel dx="2062" dy="1071" grid="1" gridSize="10" guides="1" tooltips="1" connect="1" arrows="1" fold="1" page="1" pageScale="1" pageWidth="827" pageHeight="1169" math="0" shadow="0">
      <root>
        <mxCell id="0" />
        <mxCell id="1" parent="0" />
        <mxCell id="-ZUA9NdormXJy16_-zqZ-2" value="Container" style="swimlane;swimlaneFillColor=#E6D0DE;" vertex="1" parent="1">
          <mxGeometry width="280" height="1000000" as="geometry" />
        </mxCell>
        <mxCell id="-ZUA9NdormXJy16_-zqZ-3" value="" style="rounded=1;whiteSpace=wrap;html=1;absoluteArcSize=1;arcSize=14;strokeWidth=2;" vertex="1" parent="-ZUA9NdormXJy16_-zqZ-2">
          <mxGeometry x="10" y="30" width="180" height="60" as="geometry" />
        </mxCell>
        <mxCell id="-ZUA9NdormXJy16_-zqZ-4" value="" style="rounded=1;whiteSpace=wrap;html=1;absoluteArcSize=1;arcSize=14;strokeWidth=2;" vertex="1" parent="1">
          <mxGeometry x="10" y="170" width="180" height="60" as="geometry" />
        </mxCell>
        <mxCell id="-ZUA9NdormXJy16_-zqZ-5" value="" style="edgeStyle=orthogonalEdgeStyle;rounded=0;orthogonalLoop=1;jettySize=auto;html=1;" edge="1" parent="1" source="-ZUA9NdormXJy16_-zqZ-3" target="-ZUA9NdormXJy16_-zqZ-4">
          <mxGeometry relative="1" as="geometry" />
        </mxCell>
        <mxCell id="-ZUA9NdormXJy16_-zqZ-6" value="Container" style="swimlane;swimlaneFillColor=#E6D0DE;" vertex="1" parent="1">
          <mxGeometry x="280" width="280" height="1000000" as="geometry" />
        </mxCell>
        <mxCell id="-ZUA9NdormXJy16_-zqZ-7" value="" style="rounded=1;whiteSpace=wrap;html=1;absoluteArcSize=1;arcSize=14;strokeWidth=2;" vertex="1" parent="-ZUA9NdormXJy16_-zqZ-6">
          <mxGeometry x="10" y="30" width="180" height="60" as="geometry" />
        </mxCell>
        <mxCell id="-ZUA9NdormXJy16_-zqZ-8" value="Container" style="swimlane;swimlaneFillColor=#E6D0DE;" vertex="1" parent="1">
          <mxGeometry x="560" width="280" height="1000000" as="geometry" />
        </mxCell>
        <mxCell id="-ZUA9NdormXJy16_-zqZ-9" value="" style="rounded=1;whiteSpace=wrap;html=1;absoluteArcSize=1;arcSize=14;strokeWidth=2;" vertex="1" parent="-ZUA9NdormXJy16_-zqZ-8">
          <mxGeometry x="10" y="30" width="180" height="60" as="geometry" />
        </mxCell>
      </root>
    </mxGraphModel>
  </diagram>
</mxfile>
